<svg width="20" height="20" viewBox="0 0 20 20" fill="none" xmlns="http://www.w3.org/2000/svg">
<mask id="mask0_1413_21087" style="mask-type:alpha" maskUnits="userSpaceOnUse" x="0" y="0" width="20" height="20">
<rect width="20" height="20" fill="#C4C4C4"/>
</mask>
<g mask="url(#mask0_1413_21087)">
<path d="M10 17.5C14.1421 17.5 17.5 14.1421 17.5 10C17.5 5.85786 14.1421 2.5 10 2.5C5.85786 2.5 2.5 5.85786 2.5 10C2.5 14.1421 5.85786 17.5 10 17.5Z" fill="#854EE1"/>
<path d="M9.375 9.375H10V13.75H10.625" fill="white"/>
<path d="M9.375 9.375H10V13.75H10.625" stroke="white" stroke-width="0.75" stroke-linecap="round" stroke-linejoin="round"/>
<path d="M10.25 6.5625C10.25 6.78687 10.0681 6.96875 9.84375 6.96875C9.61938 6.96875 9.4375 6.78687 9.4375 6.5625C9.4375 6.33813 9.61938 6.15625 9.84375 6.15625C10.0681 6.15625 10.25 6.33813 10.25 6.5625Z" fill="white" stroke="white" stroke-width="0.75"/>
</g>
</svg>
