<svg width="14" height="14" viewBox="0 0 14 14" fill="none" xmlns="http://www.w3.org/2000/svg">
<g clip-path="url(#clip0_125_333)">
<path fill-rule="evenodd" clip-rule="evenodd" d="M3.49992 3.469C3.61583 3.469 3.7306 3.44615 3.83768 3.40177C3.94475 3.35738 4.04203 3.29232 4.12394 3.21031C4.20586 3.12831 4.2708 3.03096 4.31507 2.92383C4.35934 2.81671 4.38205 2.70191 4.38192 2.586V0.994C4.38192 0.878174 4.35911 0.763482 4.31478 0.656473C4.27046 0.549464 4.20549 0.452233 4.12359 0.370331C4.04169 0.28843 3.94446 0.223462 3.83745 0.179138C3.73044 0.134813 3.61575 0.112 3.49992 0.112C3.38409 0.112 3.2694 0.134813 3.16239 0.179138C3.05538 0.223462 2.95815 0.28843 2.87625 0.370331C2.79435 0.452233 2.72938 0.549464 2.68506 0.656473C2.64073 0.763482 2.61792 0.878174 2.61792 0.994V2.586C2.61779 2.70191 2.64051 2.81671 2.68477 2.92383C2.72904 3.03096 2.79398 3.12831 2.8759 3.21031C2.95781 3.29232 3.05509 3.35738 3.16216 3.40177C3.26924 3.44615 3.38401 3.469 3.49992 3.469Z" fill="#6690FF"/>
<path d="M10.8819 2.586L10.8819 2.58657C10.882 2.63677 10.8721 2.68649 10.853 2.73288C10.8338 2.77928 10.8057 2.82144 10.7702 2.85696C10.7347 2.89248 10.6926 2.92066 10.6462 2.93988C10.5998 2.9591 10.5501 2.969 10.4999 2.969C10.4497 2.969 10.4 2.9591 10.3536 2.93988C10.3073 2.92066 10.2651 2.89248 10.2297 2.85696C10.1942 2.82144 10.166 2.77928 10.1469 2.73288C10.1277 2.68649 10.1179 2.63677 10.1179 2.58657V2.586V0.994C10.1179 0.892687 10.1582 0.795524 10.2298 0.723885C10.3014 0.652246 10.3986 0.612 10.4999 0.612C10.6012 0.612 10.6984 0.652246 10.77 0.723885C10.8417 0.795524 10.8819 0.892687 10.8819 0.994L10.8819 2.586ZM11.3819 2.586V0.994C11.3819 0.760079 11.289 0.535738 11.1236 0.370331C10.9582 0.204924 10.7338 0.112 10.4999 0.112C10.266 0.112 10.0417 0.204924 9.87625 0.370331C9.71085 0.535738 9.61792 0.760079 9.61792 0.994V2.586C9.61779 2.70191 9.64051 2.81671 9.68477 2.92383C9.72904 3.03096 9.79398 3.12831 9.8759 3.21031C9.95781 3.29232 10.0551 3.35738 10.1622 3.40177C10.2692 3.44615 10.384 3.469 10.4999 3.469C10.6158 3.469 10.7306 3.44615 10.8377 3.40177C10.9448 3.35738 11.042 3.29232 11.1239 3.21031C11.2059 3.12831 11.2708 3.03096 11.3151 2.92383C11.3593 2.81671 11.3821 2.70191 11.3819 2.586Z" fill="#6690FF" stroke="#6690FF"/>
<path d="M10.7754 5.52532L10.7841 5.52443L10.7927 5.52324C11.4613 5.43055 12.0727 5.09548 12.5106 4.58169C12.9472 4.06933 13.1811 3.41483 13.168 2.7419V1.99219C13.1969 2.01571 13.2245 2.04112 13.2505 2.06833C13.4096 2.23473 13.4989 2.45578 13.5 2.686V12.485C13.5 12.7237 13.4052 12.9526 13.2364 13.1214C13.0676 13.2902 12.8387 13.385 12.6 13.385H1.4C1.1613 13.385 0.932387 13.2902 0.763604 13.1214C0.594821 12.9526 0.5 12.7237 0.5 12.485V2.68604C0.501108 2.45571 0.590483 2.23456 0.749744 2.06813C0.775994 2.0407 0.803813 2.0151 0.833 1.99142V2.87086C0.833 2.8709 0.833 2.87093 0.833 2.87097C0.83293 3.2445 0.911293 3.61388 1.06302 3.9552C1.21476 4.29656 1.43649 4.60225 1.71387 4.85248C1.99124 5.10271 2.31807 5.2919 2.6732 5.4078C3.02833 5.52371 3.40385 5.56375 3.77543 5.52532L3.78405 5.52443L3.79264 5.52324C4.46196 5.43048 5.07382 5.09489 5.51179 4.58032C5.94846 4.06727 6.18188 3.41201 6.168 2.73856V1.78497H7.833V2.87086C7.833 2.8709 7.833 2.87093 7.833 2.87097C7.83293 3.2445 7.91129 3.61388 8.06302 3.9552C8.21476 4.29656 8.43649 4.60225 8.71387 4.85248C8.99124 5.10271 9.31808 5.2919 9.6732 5.4078C10.0283 5.52371 10.4038 5.56375 10.7754 5.52532ZM12 10.7767L12 10.7754L12.003 7.45243L12.003 7.45022C12.0017 7.0925 11.8591 6.74979 11.6061 6.49684C11.3532 6.24389 11.0105 6.10123 10.6528 6.09997H10.651H3.151C2.79163 6.09997 2.44698 6.24273 2.19287 6.49684C1.93876 6.75096 1.796 7.0956 1.796 7.45497L1.796 10.775L1.796 10.7767C1.79726 11.1344 1.93992 11.4772 2.19287 11.7301C2.44581 11.9831 2.78853 12.1257 3.14625 12.127H3.148L10.648 12.127L10.6498 12.127C11.0075 12.1257 11.3502 11.9831 11.6031 11.7301C11.8561 11.4772 11.9987 11.1344 12 10.7767Z" fill="#6690FF" stroke="#6690FF"/>
</g>
<defs>
<clipPath id="clip0_125_333">
<rect width="14" height="14" fill="white"/>
</clipPath>
</defs>
</svg>
