<svg width="10" height="6" viewBox="0 0 10 6" fill="none" xmlns="http://www.w3.org/2000/svg">
<path d="M9.89519 4.47158L5.25468 0.099582C5.22127 0.0680157 5.18157 0.0429715 5.13787 0.0258836C5.09417 0.00879579 5.04732 0 5 0C4.95268 0 4.90584 0.00879579 4.86213 0.0258836C4.81843 0.0429715 4.77874 0.0680157 4.74532 0.099582L0.104808 4.47158C0.0546771 4.51926 0.0205927 4.57982 0.00682493 4.64567C-0.00694282 4.71153 0.000218367 4.77974 0.0274113 4.84178C0.0546043 4.90381 0.100619 4.95691 0.159692 4.99441C0.218764 5.0319 0.288266 5.05214 0.359489 5.05258H9.64051C9.71173 5.05214 9.78123 5.0319 9.84031 4.99441C9.89938 4.95691 9.9454 4.90381 9.97259 4.84178C9.99978 4.77974 10.0069 4.71153 9.99318 4.64567C9.97941 4.57982 9.94532 4.51926 9.89519 4.47158Z" fill="#7272B3"/>
</svg>
