<svg width="11" height="14" viewBox="0 0 11 14" fill="none" xmlns="http://www.w3.org/2000/svg">
<path fill-rule="evenodd" clip-rule="evenodd" d="M5.75468 0.100002L10.3952 4.472C10.4453 4.51968 10.4794 4.58024 10.4932 4.64609C10.5069 4.71195 10.4998 4.78016 10.4726 4.8422C10.4454 4.90423 10.3994 4.95733 10.3403 4.99483C10.2812 5.03232 10.2117 5.05256 10.1405 5.053H0.859489C0.788266 5.05256 0.718764 5.03232 0.659692 4.99483C0.600619 4.95733 0.554604 4.90423 0.527411 4.8422C0.500218 4.78016 0.493057 4.71195 0.506825 4.64609C0.520593 4.58024 0.554677 4.51968 0.604808 4.472L5.24532 0.100002C5.27873 0.0684353 5.31843 0.0433911 5.36213 0.0263033C5.40584 0.00921541 5.45269 0.000419617 5.5 0.000419617C5.54732 0.000419617 5.59416 0.00921541 5.63787 0.0263033C5.68157 0.0433911 5.72127 0.0684353 5.75468 0.100002ZM5.24532 13.9L0.604808 9.528C0.554677 9.48032 0.520593 9.41976 0.506825 9.35391C0.493057 9.28806 0.500218 9.21984 0.527411 9.1578C0.554604 9.09577 0.600619 9.04268 0.659692 9.00518C0.718764 8.96768 0.788266 8.94744 0.859489 8.947H10.1405C10.2117 8.94744 10.2812 8.96768 10.3403 9.00518C10.3994 9.04268 10.4454 9.09577 10.4726 9.1578C10.4998 9.21984 10.5069 9.28806 10.4932 9.35391C10.4794 9.41976 10.4453 9.48032 10.3952 9.528L5.75468 13.9C5.72127 13.9316 5.68157 13.9566 5.63787 13.9737C5.59416 13.9908 5.54732 13.9996 5.5 13.9996C5.45269 13.9996 5.40584 13.9908 5.36213 13.9737C5.31843 13.9566 5.27873 13.9316 5.24532 13.9Z" fill="#7272B3"/>
</svg>
