<svg width="10" height="6" viewBox="0 0 10 6" fill="none" xmlns="http://www.w3.org/2000/svg">
<path fill-rule="evenodd" clip-rule="evenodd" d="M4.74532 5.8999L0.104808 1.5279C0.0546771 1.48022 0.0205927 1.41966 0.00682493 1.35381C-0.00694282 1.28795 0.000218367 1.21974 0.0274113 1.1577C0.0546043 1.09567 0.100619 1.04257 0.159692 1.00508C0.218764 0.967577 0.288266 0.947339 0.359489 0.946899H9.64051C9.71173 0.947339 9.78123 0.967577 9.84031 1.00508C9.89938 1.04257 9.9454 1.09567 9.97259 1.1577C9.99978 1.21974 10.0069 1.28795 9.99318 1.35381C9.97941 1.41966 9.94532 1.48022 9.89519 1.5279L5.25468 5.8999C5.22127 5.93147 5.18157 5.95651 5.13787 5.9736C5.09417 5.99069 5.04732 5.99948 5 5.99948C4.95268 5.99948 4.90584 5.99069 4.86213 5.9736C4.81843 5.95651 4.77874 5.93147 4.74532 5.8999Z" fill="#7272B3"/>
</svg>
