<svg width="14" height="14" viewBox="0 0 14 14" fill="none" xmlns="http://www.w3.org/2000/svg">
<g clip-path="url(#clip0_125_327)">
<path fill-rule="evenodd" clip-rule="evenodd" d="M12.5339 3.00008C12.1491 2.99696 11.7774 3.13991 11.4939 3.40008L6.99987 7.65208L2.50587 3.40508C2.22316 3.14457 1.8528 2.99994 1.46837 2.99994C1.08393 2.99994 0.713568 3.14457 0.430865 3.40508C0.294915 3.52968 0.186361 3.68119 0.112099 3.84998C0.0378361 4.01878 -0.000513024 4.20117 -0.000513016 4.38558C-0.000513008 4.56999 0.0378362 4.75239 0.112099 4.92118C0.186361 5.08998 0.294915 5.24149 0.430865 5.36608L5.96287 10.5931C6.24442 10.8547 6.61453 11.0001 6.99887 11.0001C7.3832 11.0001 7.75331 10.8547 8.03487 10.5931L13.5689 5.36608C13.7048 5.24148 13.8134 5.08998 13.8876 4.92118C13.9619 4.75239 14.0002 4.56999 14.0002 4.38558C14.0002 4.20117 13.9619 4.01878 13.8876 3.84998C13.8134 3.68119 13.7048 3.52968 13.5689 3.40508C13.2879 3.14341 12.9178 2.99859 12.5339 3.00008Z" fill="#6690FF"/>
</g>
<defs>
<clipPath id="clip0_125_327">
<rect width="14" height="14" fill="white"/>
</clipPath>
</defs>
</svg>
