<svg width="16" height="16" viewBox="0 0 16 16" fill="none" xmlns="http://www.w3.org/2000/svg">
<path d="M9 5C9 5.55228 8.55228 6 8 6C7.44772 6 7 5.55228 7 5C7 4.44772 7.44772 4 8 4C8.55228 4 9 4.44772 9 5Z" fill="#FF4740"/>
<path d="M7.63333 12C7.44924 12 7.3 11.8508 7.3 11.6667V7.33333C7.3 7.14924 7.44924 7 7.63333 7H8.36667C8.55076 7 8.7 7.14924 8.7 7.33333V11.6667C8.7 11.8508 8.55076 12 8.36667 12H7.63333Z" fill="#FF4740"/>
<path fill-rule="evenodd" clip-rule="evenodd" d="M15 8C15 11.866 11.866 15 8 15C4.13401 15 1 11.866 1 8C1 4.13401 4.13401 1 8 1C11.866 1 15 4.13401 15 8ZM14 8C14 11.3137 11.3137 14 8 14C4.68629 14 2 11.3137 2 8C2 4.68629 4.68629 2 8 2C11.3137 2 14 4.68629 14 8Z" fill="#FF4740"/>
</svg>
